<?xml version="1.0" encoding="utf-8"?>
<!-- Generator: Adobe Illustrator 22.0.1, SVG Export Plug-In . SVG Version: 6.00 Build 0)  -->
<svg version="1.1" id="Layer_1" xmlns="http://www.w3.org/2000/svg" xmlns:xlink="http://www.w3.org/1999/xlink" x="0px" y="0px"
	 viewBox="0 0 159.5 59.4" style="enable-background:new 0 0 159.5 59.4;" xml:space="preserve">
<style type="text/css">
	.st0{stroke:#000000;stroke-miterlimit:10;}
	.st1{fill:#FF0000;stroke:#000000;stroke-miterlimit:10;}
</style>
<g>
	<path class="st0" d="M77.2,10.6c0,3.1-1.9,5.7-5.7,7.9c-1.6,0.9-2.8,1.4-3.4,1.4c-0.2,0-0.2-0.1-0.2-0.2c0-0.1,0.3-0.3,0.8-0.5
		c2.2-0.9,4-2.1,5.4-3.7c1.4-1.6,2.1-3.2,2.1-4.9c0-1.6-0.5-2.8-1.6-3.8c-1.1-1-2.5-1.5-4.2-1.5c-5.6,0-10.6,3.2-15,9.6
		c-0.8,1.1-3.1,5.4-6.9,12.9c-4.2,8-9.1,13-14.8,14.8c1.7,0.2,3,0.3,4,0.3c3.6,0,6.6-1.2,9.1-3.5c2.1-2,4.1-4.3,5.8-7
		c0.2-0.3,0.4-0.4,0.5-0.4c0.1,0,0.1,0.1,0.1,0.1c0,0.2-0.9,1.5-2.8,3.8c-2.2,2.8-4.2,4.7-6,5.8c-1.8,1-4,1.6-6.6,1.6
		c-1.6,0-3.4-0.1-5.3-0.4c-1.4,0.4-2.8,0.6-4,0.6c-1,0-1.5-0.2-1.5-0.6c0-0.5,0.8-0.7,2.4-0.7c0.9,0,2,0.1,3.4,0.4
		c2.6-1.1,4.5-2.5,5.9-4.2c1.4-1.8,3.6-5.6,6.5-11.3l0.5-1H34.2c-1.8,3.4-3.4,5.9-4.8,7.6s-3.2,3.2-5.4,4.8c-5,3.4-9.8,5.1-14.4,5.1
		c-2.7,0-4.9-0.6-6.6-1.7c-1.7-1.1-2.5-2.6-2.5-4.5c0-1,0.3-1.8,0.8-2.5c0.6-0.7,1.3-1.1,2.1-1.1c1.3,0,1.9,0.6,1.9,1.9
		c0,0.6-0.2,1.2-0.6,1.6c-0.4,0.4-0.9,0.7-1.5,0.7c-0.9,0-1.4-0.5-1.4-1.4c0.1-0.5,0-0.7-0.2-0.7c-0.4,0-0.5,0.5-0.5,1.6
		c0,1.6,0.8,2.9,2.3,3.9c1.5,1,3.4,1.5,5.8,1.5c4.1,0,7.7-1.2,10.8-3.7c3.1-2.5,6.6-6.9,10.5-13.2h-9l0.2-0.6H31
		c0.2-0.4,0.6-1,1.2-1.9c4.1-6.6,8-11.3,11.6-13.9c0.8-0.6,1.8-1.2,3-1.8c1.3-0.7,2.1-1,2.3-1c0.1,0,0.2,0.1,0.2,0.2
		s-0.2,0.3-0.6,0.4c-2.4,1-4.6,2.7-6.4,5c-1.9,2.4-4.5,6.7-7.8,12.9h11.4c3.7-6.5,7.6-11.6,11.9-15.2c4.3-3.6,8.5-5.4,12.6-5.4
		c2,0,3.6,0.5,4.9,1.6S77.2,8.9,77.2,10.6z M39.2,11.3c0,0.4-0.6,1.2-1.7,2.5c-1.7,1.9-3.4,2.8-4.9,2.8c-1.1,0-2-0.4-2.8-1.2
		c-0.7-0.8-1.1-1.8-1.1-2.9c0-1.1,0.4-2.4,1.2-4c1-2,1.5-3.4,1.5-4.1c0-1-0.5-1.8-1.4-2.4C29,1.3,27.8,1,26.3,1
		C21.9,1,17.8,2.7,14,6.2c-3.8,3.5-5.7,7.3-5.7,11.2c0,2.1,0.6,3.7,1.9,5c1.2,1.3,2.9,1.9,4.9,1.9c3.8,0,7.1-1.8,9.7-5.3
		c0-0.1,0.1-0.2,0.2-0.2c0.2,0,0.2,0.1,0.2,0.3c0,0.4-0.6,1.2-1.9,2.3c-2.6,2.3-5.4,3.5-8.4,3.5c-2.1,0-3.8-0.7-5.2-2.1
		c-1.3-1.4-2-3.1-2-5.3c0-4.2,2-8.1,5.9-11.7c3.9-3.6,8.2-5.3,12.8-5.3c4.1,0,6.1,1.8,6.1,5.4c0,1.2-0.4,2.7-1.3,4.4
		C30.5,12,30,13.2,30,13.7c0,1.5,0.8,2.2,2.4,2.2c1,0,2.1-0.5,3.3-1.4c1.2-0.9,2.2-2,2.9-3.3c0.1-0.2,0.2-0.3,0.3-0.3
		C39.1,11,39.2,11.1,39.2,11.3z"/>
	<path class="st0" d="M73.1,32.9c0,0.4-1.4,2.3-4.3,5.7c-2.3,2.8-4.1,4.2-5.5,4.2c-0.9,0-1.6-0.3-2.2-1c-0.6-0.7-0.9-1.5-0.9-2.5
		c0-1.1,0.3-2.2,0.9-3.4c-2,2.7-3.4,4.6-4.5,5.5c-1,1-2,1.4-3,1.4c-1,0-1.9-0.4-2.6-1.3s-1.1-2-1.1-3.4c0-3.8,2.6-7.1,7.9-10
		c2.3-1.3,4.2-1.9,5.6-1.9c1.2,0,1.8,0.6,1.8,1.8c0,0.3-0.1,0.8-0.2,1.3l1.5-2.8c0.6,0.1,1.1,0.2,1.6,0.2c0.5,0,1.2-0.1,2.1-0.2
		L65.2,35c-1.8,3-2.7,5-2.7,5.9c0,0.9,0.4,1.4,1.1,1.4c0.8,0,2-0.9,3.8-2.7c1.7-1.8,3.5-4,5.3-6.6c0.1-0.2,0.2-0.3,0.3-0.3
		C73.1,32.7,73.1,32.8,73.1,32.9z M65,28c0-1-0.4-1.4-1.3-1.4c-1.8,0-4.2,1.8-7.1,5.3c-2.9,3.5-4.4,6.4-4.4,8.5
		c0,1.3,0.6,1.9,1.7,1.9c1.3,0,3.7-2.2,7-6.7C63.7,31.9,65,29.4,65,28z"/>
	<path class="st0" d="M87.1,30.9c0,3.2-2,6.1-5.9,8.7c-3.2,2.1-5.7,3.2-7.6,3.2c-1.3,0-1.9-0.6-1.9-1.8c0-0.4,0.1-0.8,0.3-1.4
		L60.8,58.3c-0.7-0.2-1.2-0.2-1.7-0.2c-0.6,0-1.3,0.1-1.9,0.4l24.1-39.6c0.5,0.2,1,0.3,1.6,0.3c0.5,0,1.2-0.1,1.9-0.3l-8.7,14.1
		c2.1-2.8,3.6-4.6,4.6-5.4c0.9-0.9,1.9-1.3,2.8-1.3c1,0,1.9,0.4,2.6,1.3C86.8,28.4,87.1,29.5,87.1,30.9z M84.9,28.5
		c0-1.3-0.6-1.9-1.7-1.9c-1.4,0-3.8,2.3-7.2,6.9c-2.6,3.6-3.9,6-3.9,7.3c0,1,0.5,1.5,1.4,1.5c1.8,0,4.1-1.8,7-5.3
		C83.5,33.5,84.9,30.7,84.9,28.5z"/>
	<path class="st0" d="M99.1,32.9c0,0.1-0.1,0.2-0.3,0.5l-1.3,1.7c-3.7,5.1-6.5,7.7-8.4,7.7c-0.9,0-1.7-0.3-2.3-1s-0.9-1.5-0.9-2.4
		c0-1.1,0.7-2.9,2-5.2l4.6-7.8c0.6,0.1,1.1,0.2,1.4,0.2c0.5,0,1.3-0.1,2.2-0.2l-6.7,10.9c-1,1.6-1.4,2.8-1.4,3.7
		c0,0.9,0.5,1.3,1.4,1.3c1.7,0,4.8-3.1,9.2-9.3c0.1-0.2,0.2-0.3,0.3-0.3C99,32.7,99.1,32.8,99.1,32.9z M98.7,20.8
		c0,0.7-0.3,1.3-0.9,1.9c-0.6,0.6-1.2,0.9-1.9,0.9c-0.9,0-1.3-0.4-1.3-1.3c0-0.6,0.3-1.3,0.9-1.9c0.6-0.6,1.2-0.9,1.9-0.9
		C98.3,19.5,98.7,19.9,98.7,20.8z"/>
	<path class="st0" d="M122.6,32.9c0,0.4-1.4,2.3-4.3,5.7c-2.3,2.8-4.2,4.2-5.5,4.2c-0.9,0-1.6-0.3-2.2-1c-0.6-0.7-0.9-1.5-0.9-2.5
		c0-0.9,0.2-1.7,0.5-2.4c0.4-0.8,1.3-2.2,2.8-4.5c1.6-2.3,2.4-3.8,2.4-4.5c0-0.8-0.4-1.2-1.3-1.2c-2.9,0-7.2,5.3-13.2,15.9
		c-1-0.1-1.5-0.1-1.7-0.1c-0.7,0-1.3,0-1.9,0.1l4.6-7.2c2.6-4.1,3.9-6.7,3.9-7.8c0-0.6-0.2-0.9-0.7-0.9c-1,0-3,2.1-5.9,6.3
		c-0.2,0.3-0.3,0.4-0.4,0.4c-0.1,0-0.2-0.1-0.2-0.2c0-0.1,0.1-0.2,0.1-0.2l0.6-0.7c3-4,5-6,6-6c0.7,0,1.2,0.3,1.7,0.9
		c0.5,0.6,0.7,1.3,0.7,2.2c0,1.3-0.7,3-2.2,5.2c2.3-3.2,4.1-5.4,5.3-6.5c1.2-1.2,2.4-1.8,3.4-1.8c0.9,0,1.6,0.4,2.2,1.1
		s0.9,1.6,0.9,2.6c0,1.3-0.9,3.3-2.7,6c-1.8,2.8-2.8,4.5-2.8,5.3c0,0.8,0.4,1.2,1.2,1.2c1.7,0,4.7-3.1,9-9.3
		c0.1-0.2,0.2-0.3,0.3-0.3C122.6,32.7,122.6,32.8,122.6,32.9z"/>
	<path class="st0" d="M137.4,32.9c0,0.1-0.2,0.3-0.5,0.8l-1.3,1.6c-4,5-7.5,7.5-10.4,7.5c-1.4,0-2.5-0.5-3.4-1.5s-1.4-2.2-1.4-3.7
		c0-3.5,2.5-6.6,7.4-9.3c2.6-1.4,4.7-2.1,6.3-2.1c0.7,0,1.3,0.2,1.8,0.6c0.5,0.4,0.7,0.9,0.7,1.5c0,1.4-0.9,2.6-2.8,3.6
		c-1.8,1-4.9,1.9-9.2,2.8c-1.3,2-2,3.7-2,5c0,1.7,0.9,2.5,2.7,2.5c3.1,0,6.9-3,11.3-9c0.2-0.3,0.4-0.5,0.6-0.5
		C137.4,32.8,137.4,32.8,137.4,32.9z M134.9,27.5c0-0.6-0.3-0.9-1-0.9c-1,0-2.4,0.7-4.1,2.2c-1.7,1.4-3.3,3.3-5,5.6
		c2.8-0.7,5.2-1.7,7.1-3.1C133.9,29.9,134.9,28.7,134.9,27.5z"/>
	<path class="st0" d="M147.3,21.5c0,0.8-1.2,2.3-3.7,4.6c-0.1,0.6-0.2,1.1-0.2,1.6c0,1.1,0.5,2.9,1.6,5.4c0.5,1.2,0.8,2.3,0.8,3.1
		c0,1.8-0.9,3.3-2.6,4.6c-1.7,1.3-3.7,1.9-6.1,1.9c-1.3,0-2.4-0.4-3.2-1.1s-1.2-1.8-1.2-3c0-1.5,0.5-2.9,1.6-4.3
		c1-1.4,2.1-2.1,3.2-2.1c0.2,0,0.4,0,0.5,0.1l2.3-2.9c0.7-0.8,1.6-2,2.8-3.5c0.3-1.4,0.8-2.5,1.5-3.5c0.7-1,1.4-1.5,2-1.5
		C147.1,21,147.3,21.2,147.3,21.5z M143.2,33.1c0-0.6,0-1.2-0.1-1.7c0-0.6-0.1-1.4-0.1-2.5c0-0.9,0-1.6,0.1-2.2
		c-1.1,1.4-2.7,3.3-4.7,5.9c0.4,0.3,0.6,0.7,0.6,1.1c0,1.2-0.9,1.9-2.8,2.3c-0.8,0.2-1.4,0.6-2,1.2c-0.6,0.7-0.8,1.3-0.8,2.1
		c0,0.8,0.3,1.4,0.8,2c0.6,0.5,1.3,0.8,2.1,0.8c1.6,0,3.2-1,4.7-2.9C142.5,37.3,143.2,35.3,143.2,33.1z"/>
	<path class="st0" d="M159,21.5c0,0.8-1.2,2.3-3.7,4.6c-0.1,0.6-0.2,1.1-0.2,1.6c0,1.1,0.5,2.9,1.6,5.4c0.5,1.2,0.8,2.3,0.8,3.1
		c0,1.8-0.9,3.3-2.6,4.6c-1.7,1.3-3.7,1.9-6.1,1.9c-1.3,0-2.4-0.4-3.2-1.1s-1.2-1.8-1.2-3c0-1.5,0.5-2.9,1.6-4.3
		c1-1.4,2.1-2.1,3.2-2.1c0.2,0,0.4,0,0.5,0.1l2.3-2.9c0.7-0.8,1.6-2,2.8-3.5c0.3-1.4,0.8-2.5,1.5-3.5c0.7-1,1.4-1.5,2-1.5
		C158.8,21,159,21.2,159,21.5z M154.9,33.1c0-0.6,0-1.2-0.1-1.7c0-0.6-0.1-1.4-0.1-2.5c0-0.9,0-1.6,0.1-2.2
		c-1.1,1.4-2.7,3.3-4.7,5.9c0.4,0.3,0.6,0.7,0.6,1.1c0,1.2-0.9,1.9-2.8,2.3c-0.8,0.2-1.4,0.6-2,1.2c-0.6,0.7-0.8,1.3-0.8,2.1
		c0,0.8,0.3,1.4,0.8,2c0.6,0.5,1.3,0.8,2.1,0.8c1.6,0,3.2-1,4.7-2.9C154.2,37.3,154.9,35.3,154.9,33.1z"/>
</g>
<circle class="st1" cx="96.3" cy="20.1" r="3.5"/>
</svg>
